<svg width="24" height="24" viewBox="0 0 24 24" fill="none" xmlns="http://www.w3.org/2000/svg">
<path d="M24 4.49999C24 3.65287 23.7609 2.82296 23.3102 2.1057C22.8594 1.38845 22.2154 0.812978 21.4522 0.445488C20.6889 0.0779982 19.8374 -0.0665892 18.9956 0.0283567C18.1539 0.123303 17.356 0.453925 16.6938 0.982198C16.0315 1.51047 15.5319 2.21494 15.2522 3.01457C14.9726 3.81421 14.9244 4.67653 15.1131 5.50237C15.3018 6.3282 15.7197 7.08401 16.3189 7.68285C16.918 8.28169 17.6741 8.69925 18.5 8.8875V9C18.5 9.53043 18.2893 10.0391 17.9142 10.4142C17.5391 10.7893 17.0304 11 16.5 11H7.50001C6.79787 11.0017 6.10838 11.187 5.50001 11.5375V8.8875C6.5787 8.64164 7.52901 8.00703 8.16943 7.10488C8.80985 6.20273 9.09549 5.09627 8.97179 3.99685C8.84808 2.89744 8.32371 1.88212 7.49882 1.14484C6.67394 0.407567 5.60636 2.53398e-06 4.50001 2.53398e-06C3.39366 2.53398e-06 2.32608 0.407567 1.50119 1.14484C0.676308 1.88212 0.151932 2.89744 0.0282286 3.99685C-0.095475 5.09627 0.190164 6.20273 0.830585 7.10488C1.47101 8.00703 2.42132 8.64164 3.50001 8.8875V15.1125C2.42132 15.3584 1.47101 15.993 0.830585 16.8951C0.190164 17.7973 -0.095475 18.9037 0.0282286 20.0031C0.151932 21.1026 0.676308 22.1179 1.50119 22.8552C2.32608 23.5924 3.39366 24 4.50001 24C5.60636 24 6.67394 23.5924 7.49882 22.8552C8.32371 22.1179 8.84808 21.1026 8.97179 20.0031C9.09549 18.9037 8.80985 17.7973 8.16943 16.8951C7.52901 15.993 6.5787 15.3584 5.50001 15.1125V15C5.50001 14.4696 5.71072 13.9609 6.08579 13.5858C6.46087 13.2107 6.96957 13 7.50001 13H16.5C17.5609 13 18.5783 12.5786 19.3284 11.8284C20.0786 11.0783 20.5 10.0609 20.5 9V8.8875C21.4931 8.65884 22.3796 8.10075 23.0151 7.30408C23.6506 6.50741 23.9978 5.51909 24 4.49999ZM2.00001 4.49999C2.00001 4.00554 2.14663 3.52219 2.42134 3.11106C2.69604 2.69994 3.08649 2.37951 3.5433 2.19029C4.00012 2.00107 4.50278 1.95156 4.98773 2.04802C5.47269 2.14449 5.91814 2.38259 6.26777 2.73222C6.61741 3.08185 6.85551 3.52731 6.95197 4.01226C7.04843 4.49722 6.99893 4.99988 6.80971 5.4567C6.62049 5.91352 6.30006 6.30396 5.88893 6.57867C5.47781 6.85337 4.99446 6.99999 4.50001 6.99999C3.83798 6.99671 3.204 6.73226 2.73587 6.26413C2.26774 5.796 2.0033 5.16202 2.00001 4.49999ZM7.00001 19.5C7.00001 19.9945 6.85339 20.4778 6.57868 20.8889C6.30398 21.3001 5.91353 21.6205 5.45672 21.8097C4.9999 21.9989 4.49724 22.0484 4.01228 21.952C3.52733 21.8555 3.08187 21.6174 2.73224 21.2678C2.38261 20.9181 2.14451 20.4727 2.04805 19.9877C1.95158 19.5028 2.00109 19.0001 2.19031 18.5433C2.37953 18.0865 2.69996 17.696 3.11108 17.4213C3.52221 17.1466 4.00556 17 4.50001 17C5.16204 17.0033 5.79601 17.2677 6.26414 17.7359C6.73227 18.204 6.99672 18.838 7.00001 19.5ZM19.5 6.99999C19.0055 6.99999 18.5222 6.85337 18.1111 6.57867C17.7 6.30396 17.3795 5.91352 17.1903 5.4567C17.0011 4.99988 16.9516 4.49722 17.048 4.01226C17.1445 3.52731 17.3826 3.08185 17.7322 2.73222C18.0819 2.38259 18.5273 2.14449 19.0123 2.04802C19.4972 1.95156 19.9999 2.00107 20.4567 2.19029C20.9135 2.37951 21.304 2.69994 21.5787 3.11106C21.8534 3.52219 22 4.00554 22 4.49999C21.9967 5.16202 21.7323 5.796 21.2641 6.26413C20.796 6.73226 20.162 6.99671 19.5 6.99999Z" fill="#9747FF"/>
</svg>
