<svg width="25" height="24" viewBox="0 0 25 24" fill="none" xmlns="http://www.w3.org/2000/svg">
<g clip-path="url(#clip0_1_42)">
<path d="M19.325 0H6.575C3.4684 0 0.949997 2.5184 0.949997 5.625V18.375C0.949997 21.4816 3.4684 24 6.575 24H19.325C22.4316 24 24.95 21.4816 24.95 18.375V5.625C24.95 2.5184 22.4316 0 19.325 0Z" fill="#CD6799"/>
<mask id="mask0_1_42" style="mask-type:luminance" maskUnits="userSpaceOnUse" x="3" y="4" width="20" height="16">
<path d="M3.575 4.96875H22.325V19.0227H3.575V4.96875Z" fill="white"/>
</mask>
<g mask="url(#mask0_1_42)">
<path d="M19.71 13.0465C19.0562 13.0499 18.4881 13.2074 18.0123 13.4401C17.8377 13.0944 17.6632 12.7864 17.6323 12.5604C17.5981 12.2969 17.5571 12.136 17.5981 11.8211C17.6392 11.5062 17.8241 11.0579 17.8206 11.0237C17.8172 10.9894 17.7795 10.8286 17.403 10.8251C17.0265 10.8218 16.7014 10.897 16.6637 10.9963C16.626 11.0955 16.5542 11.3214 16.5063 11.5542C16.4412 11.8965 15.7532 13.1184 15.3596 13.7585C15.233 13.5086 15.1235 13.2895 15.0995 13.115C15.0653 12.8514 15.0242 12.6906 15.0653 12.3757C15.1063 12.0607 15.2912 11.6123 15.2877 11.5781C15.2844 11.5439 15.2467 11.383 14.8702 11.3797C14.4937 11.3762 14.1685 11.4515 14.1309 11.5507C14.0932 11.65 14.0521 11.8828 13.9734 12.1087C13.8947 12.3346 12.9808 14.3746 12.7412 14.9017C12.6444 15.115 12.5428 15.3261 12.4366 15.5348C12.4366 15.5348 12.4331 15.5452 12.4229 15.5622C12.3895 15.6277 12.3553 15.6927 12.3202 15.7573V15.7608C12.2689 15.8532 12.2141 15.9387 12.1867 15.9387C12.1661 15.9387 12.1286 15.6923 12.1935 15.3569C12.3305 14.6483 12.6556 13.5462 12.6522 13.5086C12.6522 13.4881 12.7138 13.2964 12.44 13.1971C12.173 13.0978 12.0772 13.2622 12.0532 13.2622C12.0293 13.2622 12.0121 13.3204 12.0121 13.3204C12.0121 13.3204 12.31 12.0813 11.444 12.0813C10.9031 12.0813 10.157 12.6734 9.78743 13.2074C9.36717 13.4361 8.94727 13.6654 8.52771 13.8953C8.32587 14.0083 8.11709 14.1213 7.9219 14.2274C7.90821 14.2137 7.89452 14.1966 7.88084 14.1829C6.83346 13.0636 4.89621 12.273 4.97834 10.7704C5.00918 10.2227 5.19743 8.78512 8.6989 7.0395C11.5809 5.61909 13.8742 6.01266 14.2712 6.88547C14.8393 8.13141 13.0424 10.4452 10.0646 10.7806C8.92821 10.9072 8.33271 10.4692 8.18215 10.3049C8.02465 10.1337 8.00065 10.1235 7.94243 10.1577C7.84662 10.209 7.90821 10.363 7.94243 10.452C8.03149 10.6848 8.39768 11.0955 9.01718 11.2974C9.56487 11.4755 10.8963 11.5747 12.5084 10.9518C14.3123 10.2535 15.7225 8.31272 15.3083 6.687C14.8942 5.03719 12.1559 4.49297 9.56487 5.41369C8.02455 5.96137 6.3543 6.82387 5.1529 7.94653C3.72555 9.28153 3.49971 10.4418 3.59215 10.9278C3.92412 12.6529 6.30293 13.7755 7.25449 14.6073C7.20659 14.6347 7.16205 14.6587 7.12446 14.6792C6.64868 14.9153 4.83462 15.8634 4.38274 16.8664C3.86937 18.0027 4.46496 18.8173 4.85852 18.9268C6.08046 19.2657 7.33662 18.6564 8.01096 17.6501C8.68521 16.6438 8.60309 15.3364 8.29155 14.7374C8.28822 14.7298 8.28359 14.7229 8.27787 14.7169C8.40115 14.645 8.52771 14.5697 8.65099 14.4978C8.8775 14.3639 9.10687 14.235 9.33893 14.111C9.22259 14.4293 9.13699 14.8092 9.09593 15.3569C9.04465 16.0004 9.30818 16.8355 9.65384 17.1641C9.80787 17.3078 9.98927 17.3113 10.1057 17.3113C10.5096 17.3113 10.691 16.9759 10.8929 16.5788C11.1393 16.0927 11.3619 15.528 11.3619 15.528C11.3619 15.528 11.0846 17.0546 11.8376 17.0546C12.1114 17.0546 12.3886 16.6987 12.5119 16.5173V16.5206C12.5119 16.5206 12.5187 16.5104 12.5324 16.4864C12.5598 16.4419 12.5769 16.4145 12.5769 16.4145V16.4077C12.6865 16.216 12.9328 15.7813 13.2991 15.0591C13.7714 14.1281 14.2267 12.9644 14.2267 12.9644C14.2267 12.9644 14.2677 13.2485 14.4081 13.7208C14.4902 13.9981 14.6614 14.3027 14.7983 14.5971C14.6888 14.7511 14.6203 14.8366 14.6203 14.8366L14.6237 14.8401C14.5347 14.9564 14.4389 15.0831 14.3328 15.2062C13.9597 15.6513 13.5147 16.1613 13.4531 16.3085C13.3812 16.483 13.3984 16.6096 13.5353 16.7123C13.6346 16.7876 13.8125 16.7978 13.9939 16.7876C14.3293 16.7636 14.5656 16.6815 14.6819 16.6301C14.8633 16.5652 15.0756 16.4659 15.2741 16.3187C15.6403 16.0483 15.8628 15.6615 15.8423 15.1515C15.832 14.8708 15.7395 14.5902 15.6266 14.3266C15.6609 14.2787 15.6916 14.2308 15.7258 14.1829C16.3044 13.3374 16.7527 12.4099 16.7527 12.4099C16.7527 12.4099 16.7937 12.6939 16.9341 13.1663C17.0025 13.4059 17.1429 13.666 17.2662 13.9193C16.7219 14.3609 16.3865 14.8743 16.2667 15.2097C16.0511 15.8327 16.2188 16.1133 16.5371 16.1783C16.6809 16.2092 16.8862 16.1407 17.0368 16.0757C17.2285 16.0141 17.4544 15.908 17.67 15.7505C18.0362 15.4801 18.3888 15.1036 18.3683 14.5936C18.358 14.3609 18.2964 14.1315 18.2108 13.909C18.6729 13.7174 19.2685 13.6113 20.0283 13.7002C21.6576 13.892 21.9793 14.9085 21.9177 15.3364C21.8561 15.7642 21.5138 15.9969 21.4008 16.0688C21.2879 16.1407 21.2502 16.1647 21.2606 16.216C21.2742 16.2913 21.329 16.2878 21.4248 16.2742C21.5583 16.2502 22.2805 15.9285 22.3113 15.1413C22.3627 14.135 21.4043 13.0362 19.71 13.0465ZM7.14152 17.2839C6.60077 17.8726 5.84777 18.0952 5.52255 17.9069C5.17343 17.7049 5.3103 16.8355 5.97443 16.2126C6.37821 15.8327 6.89852 15.4801 7.24418 15.2645C7.32293 15.2166 7.43927 15.1481 7.57962 15.0625C7.60362 15.0488 7.6173 15.042 7.6173 15.042L7.69943 14.9906C7.94243 15.8806 7.70965 16.6644 7.14152 17.2839ZM11.0777 14.6073C10.8895 15.066 10.4959 16.2399 10.2563 16.175C10.051 16.1201 9.92431 15.2302 10.2152 14.3506C10.3624 13.909 10.6738 13.382 10.8552 13.1766C11.1496 12.848 11.4747 12.7385 11.5535 12.872C11.6528 13.0465 11.1941 14.3197 11.0777 14.6073ZM14.326 16.1613C14.2472 16.2023 14.1719 16.2297 14.1377 16.2092C14.1137 16.1955 14.1719 16.1407 14.1719 16.1407C14.1719 16.1407 14.5793 15.7026 14.7401 15.5041C14.8325 15.3877 14.9421 15.2508 15.0584 15.0967V15.1413C15.0584 15.665 14.5519 16.0175 14.326 16.1613ZM16.8314 15.5896C16.7732 15.5485 16.7835 15.4117 16.9786 14.9838C17.0539 14.8161 17.2319 14.5355 17.5365 14.265C17.5707 14.3746 17.5947 14.4806 17.5913 14.5799C17.5879 15.2406 17.1155 15.4869 16.8314 15.5896Z" fill="white"/>
</g>
</g>
<defs>
<clipPath id="clip0_1_42">
<rect width="24" height="24" fill="white" transform="translate(0.949997)"/>
</clipPath>
</defs>
</svg>
