<svg width="24" height="24" viewBox="0 0 24 24" fill="none" xmlns="http://www.w3.org/2000/svg">
<g clip-path="url(#clip0_1_17)">
<path d="M18.375 0H5.625C2.5184 0 0 2.5184 0 5.625V18.375C0 21.4816 2.5184 24 5.625 24H18.375C21.4816 24 24 21.4816 24 18.375V5.625C24 2.5184 21.4816 0 18.375 0Z" fill="#2396ED"/>
<path d="M13.2363 11.449H15.1785V9.69178H13.2363V11.449ZM10.9242 11.449H12.8663V9.69178H10.9242V11.449ZM8.65828 11.449H10.6005V9.69178H8.65828V11.449ZM6.39234 11.449H8.28844V9.69178H6.39244L6.39234 11.449ZM4.08028 11.449H6.0225V9.69178H4.08028V11.449ZM6.39244 9.32184H8.28834V7.56469H6.39244V9.32184ZM8.65837 9.32184H10.6005V7.56469H8.65828L8.65837 9.32184ZM10.9242 9.32184H12.8663V7.56469H10.9242V9.32184ZM10.9242 7.19466H12.8663V5.4375H10.9242V7.19475V7.19466ZM21.375 10.663C21.375 10.663 20.5426 9.87684 18.8317 10.1543C18.6467 8.81325 17.2132 8.02716 17.2132 8.02716C17.2132 8.02716 15.8722 9.64566 16.8432 11.4491C16.5658 11.5879 16.1033 11.7728 15.4097 11.7728H2.69306C2.46178 12.6515 2.46178 18.4779 8.84325 18.4779C13.4212 18.4779 16.8432 16.3508 18.4617 12.4664C20.8663 12.6514 21.375 10.663 21.375 10.663Z" fill="white"/>
</g>
<defs>
<clipPath id="clip0_1_17">
<rect width="24" height="24" fill="white"/>
</clipPath>
</defs>
</svg>
