<svg width="23" height="23" viewBox="0 0 23 23" fill="none" xmlns="http://www.w3.org/2000/svg">
<path d="M-1 -1H23V23H-1V-1Z" fill="#F5DE19"/>
<path d="M14.915 17.3927C15.1219 17.8358 15.4432 18.2083 15.842 18.4671C16.2408 18.7259 16.7008 18.8606 17.1691 18.8557C18.114 18.8557 18.7182 18.3574 18.7182 17.667C18.7182 16.8441 18.0975 16.5497 17.0572 16.0697L16.4868 15.8119C14.8396 15.0722 13.7473 14.146 13.7473 12.1875C13.7473 10.3835 15.0477 9.00924 17.0876 9.00924C17.7479 8.95894 18.4077 9.11482 18.9846 9.45741C19.5615 9.8 20.03 10.3142 20.3316 10.9357L18.5483 12.1381C18.4322 11.8299 18.2299 11.5662 17.9684 11.382C17.7069 11.1978 17.3985 11.1018 17.0841 11.1067C16.9469 11.0922 16.8084 11.108 16.6773 11.1531C16.5462 11.1983 16.4255 11.2717 16.3228 11.3687C16.2202 11.4657 16.1378 11.5842 16.0809 11.7167C16.0241 11.8492 15.994 11.9927 15.9926 12.1381C15.9926 12.8595 16.4166 13.1521 17.3953 13.601L17.9658 13.8589C19.9042 14.7357 21 15.629 21 17.6378C21 19.8038 19.3867 20.9906 17.2202 20.9906C16.3761 21.0474 15.5344 20.8452 14.7968 20.4086C14.0592 19.9721 13.4571 19.3197 13.0633 18.5302L14.915 17.3927ZM6.85696 17.6012C7.215 18.2714 7.54096 18.8383 8.32466 18.8383C9.07369 18.8383 9.54703 18.5293 9.54703 17.3269V9.14639H11.8279V17.3589C11.8279 19.8496 10.4408 20.9833 8.42176 20.9833C7.70806 21.0245 6.99927 20.8369 6.38854 20.4452C5.77782 20.0536 5.29376 19.4762 5 18.7889L6.85696 17.6012Z" fill="black"/>
</svg>
