<svg width="27" height="24" viewBox="0 0 27 24" fill="none" xmlns="http://www.w3.org/2000/svg">
<path d="M22.1574 7.77093C21.8706 7.67254 21.5814 7.58138 21.29 7.49756C21.339 7.29756 21.384 7.09998 21.424 6.90588C22.0807 3.7184 21.6514 1.15051 20.1852 0.305034C18.7794 -0.505492 16.4804 0.339666 14.1585 2.3604C13.9296 2.55991 13.7059 2.76517 13.4874 2.97598C13.3412 2.8358 13.1923 2.69834 13.041 2.56367C10.6075 0.403034 8.16836 -0.507597 6.70373 0.340297C5.29921 1.15335 4.88331 3.56735 5.47447 6.58819C5.53328 6.88738 5.59969 7.18502 5.67363 7.48082C5.32837 7.57893 4.99521 7.68335 4.67636 7.79451C1.82331 8.78924 0.00131226 10.3481 0.00131226 11.965C0.00131226 13.635 1.95731 15.3101 4.92889 16.3258C5.1698 16.4078 5.41272 16.4838 5.65742 16.5537C5.57795 16.8723 5.50739 17.193 5.44584 17.5156C4.88226 20.484 5.32236 22.8409 6.7231 23.6488C8.16984 24.4831 10.598 23.6257 12.9624 21.5588C13.1541 21.3908 13.3416 21.218 13.5247 21.0406C13.7613 21.2689 14.0042 21.4905 14.2531 21.7052C16.5434 23.676 18.8053 24.4718 20.2047 23.6617C21.65 22.8249 22.1198 20.2929 21.5099 17.2124C21.4619 16.9711 21.408 16.7309 21.3484 16.4922C21.5189 16.4417 21.6863 16.3897 21.8494 16.3356C24.9387 15.3121 26.9487 13.6573 26.9487 11.965C26.9487 10.3422 25.0678 8.77282 22.1574 7.77093ZM21.4874 15.2429C21.34 15.2917 21.1889 15.3387 21.0348 15.3845C20.6937 14.3048 20.2335 13.1568 19.6703 11.9706C20.2077 10.8127 20.6503 9.67935 20.9817 8.60672C21.2574 8.68651 21.5249 8.77061 21.7828 8.85935C24.2765 9.71788 25.7975 10.987 25.7975 11.965C25.7975 13.0067 24.1548 14.359 21.4874 15.2429ZM20.3807 17.436C20.6504 18.7981 20.6888 20.0297 20.5102 20.9925C20.3497 21.8577 20.027 22.4344 19.6278 22.6655C18.7787 23.157 16.9626 22.5181 15.0039 20.8326C14.7724 20.633 14.5465 20.4269 14.3264 20.2147C15.0857 19.3843 15.8446 18.4189 16.5852 17.3467C17.8879 17.2311 19.1187 17.0421 20.2348 16.7841C20.2886 17.0002 20.3372 17.2176 20.3807 17.436ZM9.18826 22.5805C8.35858 22.8735 7.69773 22.8819 7.29826 22.6516C6.44826 22.1614 6.09489 20.2688 6.57689 17.7303C6.63419 17.4303 6.69979 17.132 6.77363 16.8357C7.87742 17.0799 9.09921 17.2555 10.405 17.3614C11.1507 18.4105 11.9314 19.3748 12.7183 20.2192C12.551 20.381 12.3799 20.5387 12.2049 20.6921C11.1593 21.606 10.1116 22.2544 9.18826 22.5805ZM5.30131 15.2365C3.98731 14.7874 2.90215 14.2037 2.15836 13.5667C1.48994 12.9944 1.15258 12.4261 1.15258 11.965C1.15258 10.9838 2.61542 9.73219 5.05531 8.88156C5.35142 8.7784 5.66131 8.68103 5.98289 8.58967C6.32015 9.68651 6.76247 10.8333 7.29626 11.993C6.75552 13.1699 6.30689 14.335 5.96636 15.4448C5.74301 15.3808 5.52126 15.3114 5.30131 15.2365ZM6.60426 6.36703C6.09784 3.77893 6.43415 1.82661 7.28058 1.33661C8.18205 0.814718 10.1755 1.55882 12.2767 3.42451C12.4137 3.54644 12.5485 3.67085 12.681 3.79767C11.898 4.6384 11.1245 5.59556 10.3854 6.63851C9.11805 6.75598 7.90489 6.94461 6.78952 7.19735C6.7208 6.92221 6.65903 6.64528 6.60426 6.36703ZM18.2282 9.23735C17.9647 8.78229 17.6915 8.33296 17.4087 7.88967C18.2685 7.9984 19.0923 8.14272 19.8658 8.31914C19.6336 9.06356 19.3442 9.84177 19.0034 10.6397C18.7544 10.1671 18.4959 9.69958 18.2282 9.23735ZM13.4879 4.6204C14.0189 5.19567 14.5507 5.83788 15.0737 6.53472C14.0127 6.48461 12.9499 6.4844 11.8888 6.53409C12.4124 5.84367 12.9487 5.2023 13.4879 4.6204ZM8.71731 9.24524C8.45293 9.70375 8.19928 10.1684 7.95658 10.6387C7.62142 9.84367 7.33458 9.06188 7.10037 8.30693C7.86921 8.13493 8.6891 7.9943 9.54342 7.88756C9.25746 8.33356 8.98202 8.78632 8.71731 9.24524ZM9.56794 16.1244C8.68531 16.0259 7.8531 15.8925 7.08447 15.7251C7.32237 14.9567 7.61552 14.1583 7.95794 13.3462C8.20161 13.8169 8.45631 14.2818 8.72184 14.7405C8.99489 15.2121 9.27763 15.674 9.56794 16.1244ZM13.5197 19.3907C12.974 18.8021 12.4298 18.1508 11.8984 17.4504C12.4144 17.4706 12.9404 17.4809 13.475 17.4809C14.0243 17.4809 14.5672 17.4686 15.1016 17.4448C14.5769 18.1579 14.0471 18.8101 13.5197 19.3907ZM19.0143 13.3047C19.3745 14.1258 19.678 14.92 19.9191 15.6752C19.1378 15.8536 18.2943 15.9971 17.4054 16.1038C17.6902 15.6522 17.966 15.1951 18.2327 14.7326C18.5038 14.2625 18.7644 13.7864 19.0143 13.3047ZM17.2355 14.1575C16.8273 14.8665 16.3962 15.5622 15.9428 16.2432C15.1215 16.3014 14.2984 16.3303 13.475 16.3299C12.6364 16.3299 11.8207 16.3038 11.0352 16.2528C10.57 15.5733 10.1306 14.8765 9.71805 14.1638C9.30744 13.4548 8.924 12.7306 8.56837 11.9925C8.9231 11.2543 9.30547 10.5297 9.71468 9.82019L9.71458 9.8203C10.1236 9.11064 10.5595 8.41677 11.0212 7.74019C11.8226 7.67956 12.6444 7.64798 13.4749 7.64798C14.3092 7.64798 15.1322 7.67988 15.9333 7.74093C16.3904 8.41649 16.8234 9.10798 17.2317 9.81409C17.6423 10.522 18.0297 11.2431 18.3934 11.9762C18.0335 12.7168 17.6473 13.4443 17.2355 14.1575ZM19.6103 1.3023C20.5126 1.82272 20.8635 3.92135 20.2966 6.67346C20.2604 6.84903 20.2197 7.02788 20.1755 7.20924C19.0574 6.95114 17.8434 6.75924 16.5724 6.63998C15.8319 5.58556 15.0647 4.62693 14.2945 3.79703C14.4963 3.60246 14.703 3.41292 14.9143 3.22861C16.9037 1.49735 18.7631 0.813771 19.6103 1.3023ZM13.475 9.55872C14.8039 9.55872 15.8813 10.6361 15.8813 11.965C15.8813 13.294 14.8039 14.3714 13.475 14.3714C12.146 14.3714 11.0687 13.294 11.0687 11.965C11.0687 10.6361 12.146 9.55872 13.475 9.55872Z" fill="#00D8FF"/>
</svg>
